Coordinates
version=1
nRows=26
nColumns=24
inDegrees=yes

Units are S.I. units (second, meters, Newtons, ...)
Angles are in degrees.

endheader
time	pelvis_tilt	pelvis_list	pelvis_rotation	pelvis_tx	pelvis_ty	pelvis_tz	hip_flexion_r	hip_adduction_r	hip_rotation_r	knee_angle_r	ankle_angle_r	subtalar_angle_r	mtp_angle_r	hip_flexion_l	hip_adduction_l	hip_rotation_l	knee_angle_l	ankle_angle_l	subtalar_angle_l	mtp_angle_l	lumbar_extension	lumbar_bending	lumbar_rotation
      1.30750000	      5.81132225	      0.22164055	     -4.61410898	      0.04574189	      0.97957727	      0.36722202	    -29.22327575	     -1.06502881	     -2.69656032	     -4.46904415	     15.62947556	      2.25386692	     -0.33182003	     16.47838164	     -0.14018445	     -0.81583441	      5.76679300	     -0.90317177	     -8.56139927	     -1.71291868	    -22.07291250	      4.33981000	      7.51930284
      1.31166667	      5.78077801	      0.40780529	     -4.65084885	      0.05178374	      0.97900808	      0.36680319	    -29.37253896	     -1.32826292	     -2.74540775	     -4.77810728	     15.37393467	      2.23193393	     -0.22410287	     16.63544712	      0.10646257	     -0.71003051	      5.01338574	     -1.25139132	     -8.80062523	     -1.66520567	    -21.98104057	      4.05651435	      7.50631765
      1.31583333	      5.71505557	      0.55887143	     -4.68806039	      0.05782598	      0.97842737	      0.36633003	    -29.43651035	     -1.56275084	     -2.83363725	     -5.18718607	     15.16979173	      2.31084902	      0.13392066	     16.79715008	      0.32096817	     -0.43821696	      4.32323651	     -1.85968999	     -9.50424739	     -1.50494564	    -21.84539929	      3.85428126	      7.51836283
      1.32000000	      5.67941279	      0.74448589	     -4.73691791	      0.06392359	      0.97793079	      0.36588012	    -29.52824714	     -1.83642694	     -2.90907261	     -5.59815301	     14.87342340	      2.30637266	      0.67089180	     16.91683670	      0.57228698	     -0.21533657	      3.64099137	     -2.47799911	    -10.14463946	     -1.27055880	    -21.75178432	      3.58197607	      7.50033990
      1.32416667	      5.66334746	      0.94922992	     -4.77759579	      0.07008095	      0.97750052	      0.36542837	    -29.66032832	     -2.12225431	     -2.96489940	     -5.95582138	     14.46524445	      2.14918715	      5.85830664	     17.04550702	      0.84693232	     -0.14868042	      2.89366483	     -3.10871490	    -10.57532558	      0.87318633	    -21.66863880	      3.29241496	      7.46908225
      1.32833333	      5.57716284	      1.15297117	     -4.82260667	      0.07628540	      0.97703263	      0.36494454	    -29.68255410	     -2.41038435	     -3.03872497	     -6.39204162	     14.11842482	      2.17832556	      5.92601206	     17.24306767	      1.11863868	     -0.04188926	      2.14886810	     -3.80103976	    -11.15144100	      0.84798581	    -21.49843218	      3.00546488	      7.48258940
      1.33250000	      5.52765391	      1.37120157	     -4.87100195	      0.08251821	      0.97665474	      0.36446834	    -29.73565327	     -2.71460055	     -3.10376884	     -6.84036757	     13.73693773	      2.13790875	      6.05062101	     17.38637677	      1.40882443	      0.07754079	      1.43341473	     -4.56396211	    -11.79668667	      0.83979867	    -21.36884607	      2.69848638	      7.46195843
      1.33666667	      5.47186906	      1.59831035	     -4.91681375	      0.08879086	      0.97631741	      0.36396725	    -29.76714882	     -3.02697758	     -3.17341833	     -7.31358723	     13.32098624	      2.08300898	      6.23130031	     17.53778991	      1.71092612	      0.17562497	      0.70946390	     -5.34781925	    -12.44833529	      0.84638643	    -21.23282946	      2.38838630	      7.44858070
      1.34083333	      5.41887924	      1.83463658	     -4.96431240	      0.09509560	      0.97603175	      0.36345939	    -29.78317250	     -3.34998223	     -3.24803987	     -7.81796205	     12.85913773	      2.01005016	      6.49471411	     17.68276095	      2.02399308	      0.26989165	     -0.01241769	     -6.14902410	    -13.13472898	      0.86795969	    -21.09570246	      2.06487995	      7.42631808
      1.34500000	      5.35875781	      2.07970319	     -5.00807456	      0.10143240	      0.97578326	      0.36293578	    -29.77968407	     -3.67933470	     -3.31762461	     -8.34126336	     12.36494152	      1.92247072	      6.82286252	     17.84376477	      2.34679397	      0.33371900	     -0.75558196	     -6.94603647	    -13.78791190	      0.89810482	    -20.94725211	      1.73398375	      7.40361701
      1.34916667	      5.33168491	      2.34808904	     -5.04854246	      0.10781589	      0.97561829	      0.36240160	    -29.80463835	     -4.03459627	     -3.43042318	     -8.85794911	     11.70997417	      1.77623452	     12.32556625	     17.97661677	      2.69778591	      0.35603898	     -1.52433083	     -7.66248151	    -14.37685765	      1.53320265	    -20.83337433	      1.37107048	      7.35531354
      1.35333333	      5.26275803	      2.60419692	     -5.09147429	      0.11420433	      0.97546376	      0.36186426	    -29.75586013	     -4.37283759	     -3.48222960	     -9.43784277	     11.13697617	      1.63108599	     12.38941950	     18.16236530	      3.03011243	      0.35876240	     -2.31546533	     -8.37615098	    -14.93152084	      1.51145032	    -20.66770979	      1.03053545	      7.33491750
      1.35750000	      5.21228308	      2.87543151	     -5.12684822	      0.12062205	      0.97537233	      0.36130780	    -29.71119955	     -4.72533277	     -3.56148234	    -10.04186873	     10.51462999	      1.50235363	     12.52729627	     18.32751151	      3.38422708	      0.37681380	     -3.11570214	     -9.03948136	    -15.50636099	      1.49000075	    -20.52466575	      0.67189915	      7.29462946
      1.36166667	      5.17756648	      3.15672210	     -5.15717300	      0.12707163	      0.97534138	      0.36072189	    -29.67112972	     -5.08855711	     -3.65086494	    -10.66254543	      9.82539503	      1.37756557	     12.89798841	     18.47305993	      3.75688506	      0.43657974	     -3.92663169	     -9.60331893	    -16.13560340	      1.45337334	    -20.39591544	      0.29898072	      7.24478354
      1.36583333	      5.10642031	      3.42628367	     -5.17829808	      0.13351746	      0.97531739	      0.36012955	    -29.56854895	     -5.43034187	     -3.70301554	    -11.32323897	      9.14396050	      1.20444238	     13.27053701	     18.68993880	      4.11098565	      0.41673404	     -4.81189209	    -10.12993289	    -16.62484584	      1.40908684	    -20.22196725	     -0.05071889	      7.20355593
      1.37000000	      5.12432797	      3.71903093	     -5.20388911	      0.14000037	      0.97544140	      0.35954560	    -29.54523306	     -5.80612848	     -3.81601189	    -12.00543156	      8.37463902	      1.06245942	     13.35902580	     18.81942468	      4.49136196	      0.31516758	     -5.73448040	    -10.40409466	    -16.88142920	      1.39169622	    -20.13750507	     -0.44499361	      7.14129873
      1.37416667	      5.01463781	      3.98403448	     -5.20565874	      0.14646544	      0.97545575	      0.35888332	    -29.35339664	     -6.13522365	     -3.84807590	    -12.74460388	      7.59858710	      0.84578158	     13.98733762	     19.06794398	      4.85658846	      0.44555893	     -6.63069343	    -10.83943242	    -17.54669021	      1.29534096	    -19.93730148	     -0.76736572	      7.08978769
      1.37833333	      5.06137928	      4.29524422	     -5.22482439	      0.15297647	      0.97570339	      0.35824862	    -29.31834032	     -6.53635064	     -3.99459559	    -13.47535106	      6.62225474	      0.61873379	     20.72412726	     19.14019516	      5.27426946	      0.45805921	     -7.52329723	    -11.01889483	    -17.88836073	      0.17583129	    -19.90037714	     -1.16473317	      6.99257284
      1.38250000	      5.06960247	      4.58183921	     -5.22949901	      0.15947287	      0.97592510	      0.35760434	    -29.21016749	     -6.90057918	     -4.09466926	    -14.28289032	      5.77391460	      0.45763221	     20.73886517	     19.29185064	      5.66305095	      0.43248613	     -8.51786924	    -11.03301682	    -18.13704005	      0.17116009	    -19.80771206	     -1.55535217	      6.94348215
      1.38666667	      5.02788974	      4.86504408	     -5.22044804	      0.16597139	      0.97613230	      0.35691245	    -29.02331355	     -7.25414603	     -4.16577786	    -15.12577271	      4.85382459	      0.26071652	     20.80005273	     19.48629528	      6.05526126	      0.48773368	     -9.50386423	    -11.01110652	    -18.41509960	      0.15064922	    -19.68984307	     -1.90656460	      6.89025365
      1.39083333	      5.02217131	      5.13056224	     -5.21158549	      0.17246336	      0.97641162	      0.35621888	    -28.84871416	     -7.59448094	     -4.23739292	    -16.01010866	      3.90754602	      0.06230666	     20.88150502	     19.64092116	      6.43778726	      0.55352101	    -10.50669476	    -10.89234087	    -18.70577481	      0.12036488	    -19.58854233	     -2.24934566	      6.82810678
      1.39500000	      4.95319495	      5.33843326	     -5.17898982	      0.17890026	      0.97664719	      0.35547605	    -28.56565565	     -7.86240410	     -4.24914163	    -16.96150488	      2.91972700	     -0.24767302	     21.23392063	     19.87795926	      6.76410177	      0.65100952	    -11.56306324	    -10.68868621	    -18.97496808	     -0.02091183	    -19.42273382	     -2.48487237	      6.75205856
      1.39916667	      5.03498177	      5.61381312	     -5.18657379	      0.18538145	      0.97709420	      0.35477762	    -28.42253368	     -8.23702973	     -4.35166879	    -17.93932867	      1.92227747	     -0.38755256	     21.31418725	     19.90504134	      7.17158176	      0.73121062	    -12.51857541	    -10.40363151	    -19.23919164	     -0.05448867	    -19.41553044	     -2.84840654	      6.69349661
      1.40333333	      5.01561622	      5.84561562	     -5.14136359	      0.19181414	      0.97743211	      0.35399363	    -28.14637433	     -8.53824921	     -4.41987377	    -18.94932002	      0.81822758	     -0.70118484	     26.68524959	     20.05928284	      7.54616072	      0.89856457	    -13.54408818	     -9.91167061	    -19.34736307	     -2.56908826	    -19.33357490	     -3.13021280	      6.66113389
      1.40750000	      5.05964950	      6.09601101	     -5.13639899	      0.19825936	      0.97789712	      0.35326373	    -27.90619290	     -8.88422338	     -4.47224983	    -20.00172270	     -0.28075970	     -0.87739360	     26.69913223	     20.10248871	      7.93789144	      1.02354450	    -14.47014640	     -9.55904632	    -19.59553460	     -2.56894323	    -19.29851196	     -3.45145569	      6.57919701
      1.41166667	      5.08917885	      6.31833610	     -5.11232105	      0.20465398	      0.97835724	      0.35249753	    -27.61659452	     -9.19516723	     -4.51148368	    -21.11057016	     -1.38275409	     -1.09550893	     26.73170090	     20.15673811	      8.31101751	      1.18857395	    -15.40224505	     -9.10245714	    -19.80479696	     -2.58484394	    -19.25688754	     -3.72909528	      6.51733688
